<svg width="1920" height="1080" viewBox="0 0 1920 1080" fill="none" xmlns="http://www.w3.org/2000/svg">
<rect width="1920" height="1080" fill="#F8F7FF"/>
<path d="M558.988 659.669C558.988 659.126 558.988 658.626 558.988 658.125V500.994C558.988 330.049 698.049 190.988 868.994 190.988C1039.94 190.988 1179 330.049 1179 500.994V757.37C1179 783.58 1200.28 804.864 1226.49 804.864C1252.7 804.864 1273.99 783.58 1273.99 757.37V500.994C1273.99 277.671 1092.32 96 868.994 96C645.671 96 464 277.671 464 500.994V564.723L558.947 659.669H558.988Z" fill="#F5EFFF"/>
<path fill-rule="evenodd" clip-rule="evenodd" d="M736.535 497.388V837.192L641.547 742.204V497.388C641.547 371.975 743.588 269.934 869.001 269.934C994.414 269.934 1096.46 371.975 1096.46 497.388V626.432C1096.46 628.217 1096.36 629.979 1096.16 631.713V755.622C1096.16 828.658 1155.59 888.088 1228.63 888.088C1301.67 888.088 1361.1 828.658 1361.1 755.622V414.733C1361.1 413.858 1361.14 412.983 1361.18 412.107L1361.18 412.104L1456.08 507.008V755.622C1456.08 881.035 1354.04 983.077 1228.63 983.077C1103.22 983.077 1001.18 881.035 1001.18 755.622V626.578C1001.18 624.794 1001.27 623.032 1001.47 621.298V497.388C1001.47 424.352 942.037 364.922 869.001 364.922C795.965 364.922 736.535 424.352 736.535 497.388Z" fill="#F5EFFF"/>
<path d="M450.586 835.266L385.941 770.67L657.498 499.164L818.627 660.215L1054.42 424.492L1116.95 487.036L1440.15 163.938L1504.79 228.563L1116.95 616.287L1054.42 553.773L818.627 789.497L657.498 628.415L450.586 835.266Z" fill="#8200FF"/>
<path d="M1541.58 268.659L1396.75 123.84H1541.58V268.659Z" fill="#8200FF"/>
<path d="M897.244 1010.65H686.379V1030.23H897.244V1010.65Z" fill="#FDC00F"/>
<path d="M897.244 1030.23H686.379V1034.03H897.244V1030.23Z" fill="#D67503"/>
<path d="M891.721 987.086H680.855V1006.67H891.721V987.086Z" fill="#FDC00F"/>
<path d="M891.721 1006.67H680.855V1010.47H891.721V1006.67Z" fill="#D67503"/>
<path d="M902.768 963.52H691.902V983.1H902.768V963.52Z" fill="#FDC00F"/>
<path d="M902.768 983.129H691.902V986.93H902.768V983.129Z" fill="#D67503"/>
<path d="M891.721 939.957H680.855V959.538H891.721V939.957Z" fill="#FDC00F"/>
<path d="M891.721 959.566H680.855V963.398H891.721V959.566Z" fill="#D67503"/>
<path d="M891.721 916.426H680.855V936.007H891.721V916.426Z" fill="#FDC00F"/>
<path d="M891.721 936.008H680.855V939.839H891.721V936.008Z" fill="#D67503"/>
<path d="M891.721 892.859H680.855V912.44H891.721V892.859Z" fill="#FDC00F"/>
<path d="M891.721 912.441H680.855V916.273H891.721V912.441Z" fill="#D67503"/>
<path d="M902.768 869.297H691.902V888.908H902.768V869.297Z" fill="#FDC00F"/>
<path d="M902.768 888.879H691.902V892.68H902.768V888.879Z" fill="#D67503"/>
<path d="M891.721 845.734H680.855V865.315H891.721V845.734Z" fill="#FDC00F"/>
<path d="M891.721 865.344H680.855V869.145H891.721V865.344Z" fill="#D67503"/>
<path d="M1229.13 1010.65H1018.27V1030.23H1229.13V1010.65Z" fill="#FDC00F"/>
<path d="M1229.13 1030.23H1018.27V1034.03H1229.13V1030.23Z" fill="#D67503"/>
<path d="M1223.61 987.086H1012.74V1006.67H1223.61V987.086Z" fill="#FDC00F"/>
<path d="M1223.61 1006.67H1012.74V1010.47H1223.61V1006.67Z" fill="#D67503"/>
<path d="M1234.62 963.52H1023.76V983.1H1234.62V963.52Z" fill="#FDC00F"/>
<path d="M1234.62 983.129H1023.76V986.93H1234.62V983.129Z" fill="#D67503"/>
<path d="M1223.61 939.957H1012.74V959.538H1223.61V939.957Z" fill="#FDC00F"/>
<path d="M1223.61 959.566H1012.74V963.398H1223.61V959.566Z" fill="#D67503"/>
<path d="M1223.61 916.426H1012.74V936.007H1223.61V916.426Z" fill="#FDC00F"/>
<path d="M1223.61 936.008H1012.74V939.839H1223.61V936.008Z" fill="#D67503"/>
<path d="M1223.61 892.863H1012.74V912.444H1223.61V892.863Z" fill="#FDC00F"/>
<path d="M1223.61 912.445H1012.74V916.277H1223.61V912.445Z" fill="#D67503"/>
<path d="M1234.62 822.172H1023.76V841.783H1234.62V822.172Z" fill="#FDC00F"/>
<path d="M1234.62 841.781H1023.76V845.583H1234.62V841.781Z" fill="#D67503"/>
<path d="M1223.61 798.609H1012.74V818.19H1223.61V798.609Z" fill="#FDC00F"/>
<path d="M1223.61 818.219H1012.74V822.05H1223.61V818.219Z" fill="#D67503"/>
<path d="M1229.13 775.074H1018.27V794.655H1229.13V775.074Z" fill="#FDC00F"/>
<path d="M1229.13 794.656H1018.27V798.458H1229.13V794.656Z" fill="#D67503"/>
<path d="M1229.13 751.512H1018.27V771.093H1229.13V751.512Z" fill="#FDC00F"/>
<path d="M1229.13 771.094H1018.27V774.895H1229.13V771.094Z" fill="#D67503"/>
<path d="M1234.62 869.297H1023.76V888.908H1234.62V869.297Z" fill="#FDC00F"/>
<path d="M1234.62 888.879H1023.76V892.68H1234.62V888.879Z" fill="#D67503"/>
<path d="M1223.61 845.734H1012.74V865.315H1223.61V845.734Z" fill="#FDC00F"/>
<path d="M1223.61 865.344H1012.74V869.145H1223.61V865.344Z" fill="#D67503"/>
<path d="M1555.46 1010.65H1344.6V1030.23H1555.46V1010.65Z" fill="#FDC00F"/>
<path d="M1555.46 1030.23H1344.6V1034.04H1555.46V1030.23Z" fill="#D67503"/>
<path d="M1560.99 987.086H1350.12V1006.67H1560.99V987.086Z" fill="#FDC00F"/>
<path d="M1560.99 1006.67H1350.12V1010.47H1560.99V1006.67Z" fill="#D67503"/>
<path d="M1549.97 963.523H1339.11V983.104H1549.97V963.523Z" fill="#FDC00F"/>
<path d="M1549.97 983.133H1339.11V986.934H1549.97V983.133Z" fill="#D67503"/>
<path d="M1560.99 939.961H1350.12V959.542H1560.99V939.961Z" fill="#FDC00F"/>
<path d="M1560.99 959.57H1350.12V963.402H1560.99V959.57Z" fill="#D67503"/>
<path d="M1560.99 916.426H1350.12V936.007H1560.99V916.426Z" fill="#FDC00F"/>
<path d="M1560.99 936.008H1350.12V939.839H1560.99V936.008Z" fill="#D67503"/>
<path d="M1560.99 892.863H1350.12V912.444H1560.99V892.863Z" fill="#FDC00F"/>
<path d="M1560.99 912.445H1350.12V916.277H1560.99V912.445Z" fill="#D67503"/>
<path d="M1549.97 822.176H1339.11V841.787H1549.97V822.176Z" fill="#FDC00F"/>
<path d="M1549.97 841.785H1339.11V845.587H1549.97V841.785Z" fill="#D67503"/>
<path d="M1560.99 798.609H1350.12V818.19H1560.99V798.609Z" fill="#FDC00F"/>
<path d="M1560.99 818.219H1350.12V822.05H1560.99V818.219Z" fill="#D67503"/>
<path d="M1555.46 775.078H1344.6V794.659H1555.46V775.078Z" fill="#FDC00F"/>
<path d="M1555.46 794.66H1344.6V798.462H1555.46V794.66Z" fill="#D67503"/>
<path d="M1566.78 751.516H1355.91V771.096H1566.78V751.516Z" fill="#FDC00F"/>
<path d="M1566.78 771.098H1355.91V774.899H1566.78V771.098Z" fill="#D67503"/>
<path d="M1549.97 869.301H1339.11V888.912H1549.97V869.301Z" fill="#FDC00F"/>
<path d="M1549.97 888.883H1339.11V892.684H1549.97V888.883Z" fill="#D67503"/>
<path d="M1560.99 845.738H1350.12V865.319H1560.99V845.738Z" fill="#FDC00F"/>
<path d="M1560.99 865.348H1350.12V869.149H1560.99V865.348Z" fill="#D67503"/>
<path d="M1572 728.043H1361.14V747.624H1572V728.043Z" fill="#FDC00F"/>
<path d="M1572 747.625H1361.14V751.457H1572V747.625Z" fill="#D67503"/>
<path d="M1560.99 704.477H1350.12V724.057H1560.99V704.477Z" fill="#FDC00F"/>
<path d="M1560.99 724.059H1350.12V727.86H1560.99V724.059Z" fill="#D67503"/>
<path d="M1566.48 680.914H1355.61V700.495H1566.48V680.914Z" fill="#FDC00F"/>
<path d="M1566.48 700.523H1355.61V704.355H1566.48V700.523Z" fill="#D67503"/>
<path d="M1566.48 657.352H1355.61V676.963H1566.48V657.352Z" fill="#FDC00F"/>
<path d="M1566.48 676.961H1355.61V680.762H1566.48V676.961Z" fill="#D67503"/>
<path d="M559.865 1010.65H349V1030.23H559.865V1010.65Z" fill="#FDC00F"/>
<path d="M559.865 1030.23H349V1034.04H559.865V1030.23Z" fill="#D67503"/>
<path d="M570.881 987.086H360.016V1006.7H570.881V987.086Z" fill="#FDC00F"/>
<path d="M570.881 1006.67H360.016V1010.47H570.881V1006.67Z" fill="#D67503"/>
<path d="M559.865 963.523H349V983.104H559.865V963.523Z" fill="#FDC00F"/>
<path d="M559.865 983.133H349V986.934H559.865V983.133Z" fill="#D67503"/>
<path d="M559.865 939.961H349V959.542H559.865V939.961Z" fill="#FDC00F"/>
<path d="M559.865 959.57H349V963.372H559.865V959.57Z" fill="#D67503"/>
<path d="M1567.44 552.775C1567.44 624.974 1517.34 656.261 1455.57 656.261C1393.79 656.261 1343.66 625.004 1343.66 552.775C1343.66 480.547 1393.76 416.555 1455.57 416.555C1517.37 416.555 1567.44 480.547 1567.44 552.775Z" fill="#DF00FD"/>
<path d="M1482.94 420.871C1511.13 450.257 1529.05 493.673 1529.05 540.076C1529.05 607.598 1491.09 644.074 1438.73 655.448C1444.22 655.991 1449.83 656.263 1455.54 656.263C1517.31 656.263 1567.41 625.006 1567.41 552.777C1567.41 491.621 1531.47 436.349 1482.91 420.871H1482.94Z" fill="#B307CA"/>
<path d="M1531.17 360.317C1521.78 355.369 1498.42 359.292 1479.29 366.08C1474.1 361.283 1467.67 358.055 1460.64 358.055C1452.31 358.055 1444.76 362.61 1439.21 368.916C1419.17 360.438 1390.59 354.676 1379.97 360.287C1367.9 366.653 1383.59 385.269 1403.12 395.587C1414.49 401.591 1424.66 403.431 1433.57 402.677C1438.82 408.681 1448.99 410.853 1460.64 410.853C1472.29 410.853 1482.79 408.621 1487.98 402.375C1494.17 401.501 1500.87 399.358 1508.02 395.587C1527.55 385.299 1543.24 366.653 1531.17 360.287V360.317Z" fill="#B307CA"/>
<path d="M1525.19 358.537C1513.87 356.818 1495.13 360.438 1479.26 366.08C1474.07 361.283 1467.64 358.055 1460.61 358.055C1452.28 358.055 1444.73 362.61 1439.18 368.916C1419.14 360.438 1390.56 354.676 1379.94 360.287C1367.86 366.653 1383.56 385.269 1403.08 395.587C1409.39 398.906 1415.31 400.927 1420.83 401.953C1424.33 402.315 1428.01 402.496 1431.82 402.496C1447.39 402.496 1460.88 399.69 1467.7 391.786C1475.82 390.699 1484.6 388.014 1494.02 383.247C1507.14 376.579 1518.91 367.196 1525.19 358.507V358.537Z" fill="#DF00FD"/>
<path d="M1439.18 368.918C1439.18 368.918 1460.28 377.456 1462.12 378.965C1462.12 378.965 1470.81 368.284 1484.39 364.332C1484.39 364.332 1468.06 368.254 1461.72 376.974C1461.72 376.974 1444.97 369.371 1439.21 368.918H1439.18Z" fill="#B606CD"/>
<path d="M1491.03 420.419C1491.03 423.134 1488.85 425.306 1486.14 425.306H1424.96C1422.28 425.306 1420.07 423.134 1420.07 420.419V407.415C1420.07 404.73 1422.25 402.527 1424.96 402.527H1486.14C1488.85 402.527 1491.03 404.73 1491.03 407.415V420.419Z" fill="#B606CD"/>
<path d="M1050.53 673.819H1160.11C1160.11 648.416 1112.91 627.357 1050.53 622.801V673.819Z" fill="#000230"/>
<path d="M716.831 537.781L639.359 615.229C657.316 633.181 705.604 614.717 752.895 573.835L716.831 537.781Z" fill="#000230"/>
<path d="M1128.03 639.064C1135.94 602.769 1135.15 535.971 1109.5 507.882C1065.92 460.152 965.392 481 930.866 492.646L829.855 502.421C831.907 538.173 818.266 608.652 808.88 609.648C808.729 609.618 772.996 586.809 755.311 549.789L695.465 615.048C715.534 646.305 777.946 691.923 815.912 693.643C880.466 696.57 894.5 608.743 910.706 576.128C910.706 576.128 914.418 571.934 927.758 568.042C961.649 558.237 1039.97 558.448 1047.3 564.392C1047.39 564.512 1053.21 604.217 1039.54 642.896L1128.03 639.064Z" fill="#BC58FE"/>
<path d="M1128.03 639.064C1135.94 602.769 1135.15 535.971 1109.5 507.882C1065.92 460.152 965.392 481 930.866 492.646L829.855 502.421C831.907 538.173 818.266 608.652 808.88 609.648C808.729 609.618 772.996 586.809 755.311 549.789L695.465 615.048C715.534 646.305 777.946 691.923 815.912 693.643C880.466 696.57 894.5 608.743 910.706 576.128C910.706 576.128 914.418 571.934 927.758 568.042C961.649 558.237 1039.97 558.448 1047.3 564.392C1047.39 564.512 1053.21 604.217 1039.54 642.896L1128.03 639.064Z" fill="#E3C2F9"/>
<path d="M1086.05 640.904C1089.43 602.738 1085.84 563.697 1082.88 537.781C1078.2 496.99 938.59 512.196 938.59 512.196L874.187 520.402C870.143 676.294 816.543 654.813 816.543 654.813C777.129 648.266 741.487 614.595 719.395 588.89L695.402 615.048C715.472 646.305 777.883 691.923 815.849 693.643C880.404 696.569 894.437 608.742 910.644 576.128C910.644 576.128 914.356 571.934 927.695 568.042C961.587 558.236 1039.9 558.448 1047.24 564.391C1047.33 564.512 1053.15 604.217 1039.48 642.895L1086.02 640.874L1086.05 640.904Z" fill="#BC58FE"/>
<path d="M962.433 264.105H866.492L871.472 258.191H957.484L962.433 264.105Z" fill="#BC58FE"/>
<path d="M998.799 262.75C977.854 262.75 960.863 279.736 960.863 300.675C960.863 315.549 981.416 335.069 981.416 335.069C1044.19 397.854 1146.35 397.854 1209.12 335.069L1159.26 285.227C1124.98 319.531 1073.01 321.523 1036.43 287.882C1024.93 277.322 1015.28 262.75 998.799 262.75Z" fill="#BC58FE"/>
<path d="M1184.37 310.328L1159.26 285.196C1124.98 319.5 1073.01 321.491 1036.43 287.851C1024.93 277.291 1015.28 262.719 998.798 262.719C989.08 262.719 976.948 266.822 968.98 276.99C968.98 276.99 985.459 292.739 993.969 301.247C1047.39 354.649 1130.98 363.67 1184.4 310.298L1184.37 310.328Z" fill="#E3C2F9"/>
<path d="M868.907 326.168C883.695 311.354 883.695 287.338 868.907 272.554C858.374 262.025 830.036 262.749 830.036 262.749C741.247 262.749 668.997 334.947 669.027 423.74H739.557C739.557 375.255 774.898 337.089 824.543 335.038C840.146 334.404 857.288 337.844 868.937 326.198L868.907 326.168Z" fill="#E3C2F9"/>
<path d="M704.004 423.708H739.525C739.525 375.224 774.866 337.058 824.511 335.006C840.114 334.373 857.256 337.812 868.906 326.166C875.786 319.287 881.46 307.853 879.891 295C879.891 295 857.075 295.513 845.064 295.513C769.524 295.513 704.004 348.221 704.004 423.738V423.708Z" fill="#BC58FE"/>
<path d="M999.102 262.688H829.824V502.424H999.102V262.688Z" fill="#E3C2F9"/>
<path d="M874.219 262.598L914.478 350.183L954.708 262.598H874.219Z" fill="white"/>
<path d="M962.584 262.688L972.513 328.58H953.923L967.685 351.269L914.297 399.934L956.639 350.514L943.42 323.21L966.719 322.033L962.584 262.688Z" fill="white"/>
<path d="M867.218 262.688L857.289 328.58H875.88L862.118 351.269L915.506 399.934L873.194 350.514L886.382 323.21L863.084 322.033L867.218 262.688Z" fill="white"/>
<path d="M922.808 321.699H906.028L904.73 329.031L914.478 350.18L924.045 329.332L922.808 321.699Z" fill="#AA4AEA"/>
<path d="M906.117 301.062L901.168 311.381L906.117 321.699H922.807L927.786 311.381L922.807 301.062H906.117Z" fill="#AA4AEA"/>
<path d="M923.292 324.445L922.81 321.699H914.42H906.03L905.547 324.445H923.292Z" fill="#6B3192"/>
<path d="M730.021 460.185C743.813 446.156 743.572 423.588 729.508 409.86C715.474 396.103 692.93 396.314 679.168 410.373C665.376 424.403 665.648 446.97 679.651 460.728C693.715 474.456 716.229 474.245 730.021 460.215V460.185Z" fill="#FFD097"/>
<path d="M672.529 450.472C686.562 464.23 709.106 463.988 722.868 449.959C733.522 439.067 735.785 423.107 729.689 410.043C743.541 423.831 743.723 446.218 730.021 460.187C716.259 474.216 693.715 474.457 679.651 460.7C676.512 457.592 674.098 454.062 672.348 450.26C672.408 450.321 672.468 450.381 672.529 450.442V450.472Z" fill="#E0A769"/>
<path d="M1214.01 329.334C1227.8 315.305 1227.56 292.767 1213.5 279.009C1199.5 265.252 1176.92 265.493 1163.16 279.522C1149.37 293.552 1149.61 316.119 1163.64 329.877C1177.71 343.605 1200.22 343.394 1214.01 329.334Z" fill="#FFD097"/>
<path d="M1156.49 319.647C1170.52 333.436 1193.07 333.194 1206.83 319.135C1217.51 308.243 1219.75 292.283 1213.68 279.219C1227.53 293.007 1227.71 315.363 1214.01 329.332C1200.22 343.392 1177.71 343.603 1163.64 329.875C1160.47 326.768 1158.09 323.208 1156.31 319.436C1156.37 319.497 1156.43 319.557 1156.49 319.617V319.647Z" fill="#E0A769"/>
<path d="M951.418 252.581C951.418 271.588 935.966 287.036 916.952 287.036C897.909 287.036 882.457 271.588 882.457 252.581V237.857C882.457 218.82 897.909 203.402 916.952 203.402C935.996 203.402 951.418 218.82 951.418 237.857V252.581Z" fill="#D3985E"/>
<path d="M1019.05 178.51C1019.05 226.421 980.182 265.281 932.226 265.281C884.301 265.281 845.43 226.421 845.43 178.51V132.771C845.43 84.8599 884.301 46 932.226 46C980.182 46 1019.05 84.8599 1019.05 132.771V178.51Z" fill="#FFD097"/>
<path d="M963.551 51.8817V221.924L976.739 229.225H963.551V243.043C969.738 243.043 974.717 247.961 974.838 254.116C1001.21 239.212 1019.05 210.972 1019.05 178.508V132.769C1019.05 95.9008 996.024 64.4026 963.551 51.8516V51.8817Z" fill="#E0A769"/>
<path d="M963.551 248.625V259.456C967.444 257.948 971.216 256.198 974.808 254.146C972.182 250.767 968.138 248.625 963.551 248.625Z" fill="#E0A769"/>
<path d="M929.6 185.36C929.6 190.368 926.13 194.411 921.874 194.411C917.619 194.411 914.148 190.338 914.148 185.36C914.148 180.382 917.619 176.309 921.874 176.309C926.13 176.309 929.6 180.382 929.6 185.36Z" fill="#000230"/>
<path d="M1012.99 185.36C1012.99 190.368 1009.52 194.411 1005.23 194.411C1000.94 194.411 997.504 190.338 997.504 185.36C997.504 180.382 1000.97 176.309 1005.23 176.309C1009.49 176.309 1012.99 180.382 1012.99 185.36Z" fill="#000230"/>
<path d="M1021.56 100.821C1007.49 68.7196 972.967 46.0312 932.557 46.0312C879.682 46.0312 836.797 84.8911 836.797 132.802V146.771C908.685 162.913 985.492 147.676 1021.56 100.821Z" fill="#000230"/>
<path d="M939.378 215.259H898.213C890.095 215.259 883.516 208.651 883.516 200.535V173.985C883.516 165.839 890.125 159.262 898.213 159.262H939.378C947.496 159.262 954.106 165.839 954.106 173.985V200.535C954.106 208.651 947.496 215.259 939.378 215.259ZM898.213 166.503C894.078 166.503 890.729 169.882 890.729 173.985V200.535C890.729 204.669 894.078 208.018 898.213 208.018H939.378C943.513 208.018 946.863 204.669 946.863 200.535V173.985C946.863 169.852 943.513 166.503 939.378 166.503H898.213Z" fill="#000230"/>
<path d="M1028.92 215.259H987.786C979.668 215.259 973.059 208.651 973.059 200.535V173.985C973.059 165.839 979.668 159.262 987.786 159.262H1028.92C1037.04 159.262 1043.65 165.839 1043.65 173.985V200.535C1043.65 208.651 1037.04 215.259 1028.92 215.259ZM987.786 166.503C983.652 166.503 980.302 169.882 980.302 173.985V200.535C980.302 204.669 983.652 208.018 987.786 208.018H1028.92C1033.06 208.018 1036.41 204.669 1036.41 200.535V173.985C1036.41 169.852 1033.06 166.503 1028.92 166.503H987.786Z" fill="#000230"/>
<path d="M976.65 176.641H950.484V183.882H976.65V176.641Z" fill="#000230"/>
<path d="M915.413 216.285V207.988H915.383L915.413 216.285Z" fill="#FFD097"/>
<path d="M966.327 192.66H961.559V213.659H966.327C972.121 213.659 976.829 208.952 976.829 203.19C976.829 197.427 972.121 192.69 966.327 192.69V192.66Z" fill="#FFD097"/>
<path d="M950.363 229.316C950.363 236.588 956.279 242.471 963.552 242.471C970.825 242.471 976.74 236.588 976.74 229.316H950.363Z" fill="white"/>
<path d="M1014.34 145.082H987.816V151.237H1014.34V145.082Z" fill="#000230"/>
<path d="M836.706 178.51C836.706 193.716 839.301 208.831 847.48 220.417C851.675 226.33 866.705 242.079 866.705 242.079V142.305H836.676V178.51H836.706Z" fill="#000230"/>
<path d="M852.277 194.438C852.277 204.002 860.034 211.756 869.6 211.756V177.09C860.034 177.09 852.277 184.844 852.277 194.408V194.438Z" fill="#FFD097"/>
<path d="M830.004 507.1C830.094 512.259 829.943 517.991 829.551 524.025C965.299 529.486 999.1 480.398 999.1 480.398C949.304 510.388 866.038 508.88 830.004 507.1Z" fill="#BC58FE"/>
<path d="M1484.93 474H1404V490.794H1429.17C1438.06 490.794 1445.88 496.107 1449.52 504.201H1404.14V520.995H1450.52C1447.58 530.372 1439.03 537.04 1429.2 537.04H1404.17V557.364L1444.88 605H1466.65L1422.9 553.834H1429.2C1448.2 553.834 1464.06 539.928 1467.35 520.995H1484.97V504.201H1466.76C1465.58 499.387 1463.5 494.859 1460.73 490.794H1485V474H1484.93Z" fill="white"/>
<path d="M360.774 247.189C360.49 244.324 359.271 242.099 357.116 240.513C354.962 238.927 352.038 238.134 348.345 238.134C345.836 238.134 343.717 238.489 341.989 239.199C340.26 239.885 338.935 240.844 338.011 242.075C337.112 243.306 336.662 244.703 336.662 246.266C336.615 247.568 336.887 248.704 337.479 249.675C338.094 250.645 338.935 251.486 340 252.196C341.065 252.883 342.296 253.486 343.693 254.007C345.09 254.504 346.581 254.93 348.168 255.286L354.702 256.848C357.874 257.558 360.786 258.505 363.438 259.689C366.089 260.873 368.385 262.329 370.327 264.057C372.268 265.785 373.771 267.821 374.837 270.165C375.926 272.509 376.482 275.196 376.506 278.226C376.482 282.677 375.346 286.536 373.097 289.803C370.871 293.046 367.652 295.567 363.438 297.366C359.247 299.142 354.193 300.03 348.274 300.03C342.403 300.03 337.289 299.13 332.933 297.331C328.601 295.532 325.215 292.868 322.777 289.341C320.362 285.79 319.096 281.398 318.977 276.166H333.857C334.022 278.605 334.721 280.641 335.952 282.274C337.206 283.884 338.875 285.103 340.959 285.932C343.066 286.737 345.445 287.139 348.097 287.139C350.701 287.139 352.962 286.76 354.879 286.003C356.821 285.245 358.324 284.192 359.389 282.842C360.455 281.493 360.987 279.942 360.987 278.19C360.987 276.557 360.502 275.184 359.531 274.071C358.584 272.958 357.188 272.011 355.341 271.23C353.518 270.449 351.281 269.739 348.629 269.099L340.71 267.111C334.579 265.619 329.737 263.287 326.186 260.115C322.635 256.943 320.871 252.67 320.895 247.295C320.871 242.892 322.043 239.045 324.411 235.754C326.802 232.464 330.08 229.895 334.247 228.048C338.414 226.202 343.149 225.278 348.452 225.278C353.849 225.278 358.561 226.202 362.585 228.048C366.634 229.895 369.782 232.464 372.031 235.754C374.28 239.045 375.44 242.857 375.511 247.189H360.774ZM433.725 226.273V299H418.348V226.273H433.725ZM477.876 299V226.273H506.569C512.085 226.273 516.784 227.326 520.667 229.433C524.549 231.517 527.509 234.417 529.545 238.134C531.604 241.827 532.634 246.088 532.634 250.918C532.634 255.747 531.593 260.009 529.509 263.702C527.426 267.395 524.407 270.271 520.454 272.331C516.524 274.391 511.765 275.42 506.178 275.42H487.89V263.098H503.692C506.652 263.098 509.09 262.589 511.008 261.571C512.949 260.529 514.393 259.097 515.34 257.274C516.311 255.428 516.796 253.309 516.796 250.918C516.796 248.503 516.311 246.396 515.34 244.597C514.393 242.774 512.949 241.365 511.008 240.371C509.067 239.353 506.604 238.844 503.621 238.844H493.252V299H477.876Z" fill="#000230"/>
<path d="M240.018 353.364V397H230.793V353.364H240.018ZM284.108 353.364V397H276.139L257.154 369.536H256.835V397H247.609V353.364H255.706L274.541 380.807H274.924V353.364H284.108ZM299.614 353.364L310.161 386.517H310.565L321.134 353.364H331.361L316.318 397H304.429L289.365 353.364H299.614ZM336.613 397V353.364H366.016V360.97H345.839V371.368H364.504V378.974H345.839V389.393H366.102V397H336.613ZM397.023 365.913C396.853 364.195 396.121 362.859 394.828 361.908C393.536 360.956 391.782 360.48 389.566 360.48C388.06 360.48 386.789 360.693 385.752 361.119C384.715 361.531 383.919 362.107 383.365 362.845C382.826 363.584 382.556 364.422 382.556 365.359C382.527 366.141 382.691 366.822 383.046 367.405C383.415 367.987 383.919 368.491 384.559 368.918C385.198 369.33 385.936 369.692 386.775 370.004C387.613 370.303 388.507 370.558 389.459 370.771L393.38 371.709C395.283 372.135 397.03 372.703 398.621 373.413C400.212 374.124 401.59 374.997 402.755 376.034C403.919 377.071 404.821 378.293 405.461 379.699C406.114 381.105 406.448 382.717 406.462 384.536C406.448 387.206 405.766 389.521 404.417 391.482C403.081 393.428 401.15 394.94 398.621 396.02C396.107 397.085 393.074 397.618 389.523 397.618C386 397.618 382.932 397.078 380.319 395.999C377.719 394.919 375.688 393.321 374.225 391.205C372.776 389.074 372.016 386.439 371.945 383.3H380.873C380.972 384.763 381.391 385.984 382.13 386.964C382.882 387.93 383.884 388.662 385.134 389.159C386.398 389.642 387.826 389.884 389.417 389.884C390.979 389.884 392.336 389.656 393.486 389.202C394.651 388.747 395.553 388.115 396.192 387.305C396.831 386.496 397.151 385.565 397.151 384.514C397.151 383.534 396.86 382.71 396.277 382.043C395.709 381.375 394.871 380.807 393.763 380.338C392.669 379.869 391.327 379.443 389.736 379.06L384.985 377.866C381.306 376.972 378.401 375.572 376.27 373.669C374.14 371.766 373.081 369.202 373.096 365.977C373.081 363.335 373.784 361.027 375.205 359.053C376.64 357.078 378.607 355.537 381.107 354.429C383.607 353.321 386.448 352.767 389.63 352.767C392.868 352.767 395.695 353.321 398.11 354.429C400.539 355.537 402.428 357.078 403.777 359.053C405.127 361.027 405.823 363.314 405.865 365.913H397.023ZM411.006 360.97V353.364H446.844V360.97H433.484V397H424.365V360.97H411.006ZM452.746 353.364H464.124L476.141 382.682H476.652L488.669 353.364H500.047V397H491.098V368.598H490.736L479.443 396.787H473.349L462.057 368.491H461.695V397H452.746V353.364ZM507.648 397V353.364H537.051V360.97H516.874V371.368H535.539V378.974H516.874V389.393H537.137V397H507.648ZM580.885 353.364V397H572.916L553.932 369.536H553.612V397H544.386V353.364H552.483L571.318 380.807H571.702V353.364H580.885ZM586.846 360.97V353.364H622.684V360.97H609.324V397H600.205V360.97H586.846Z" fill="#000230"/>
</svg>
