<?xml version="1.0" encoding="utf-8"?>
<!-- Generator: Adobe Illustrator 19.2.1, SVG Export Plug-In . SVG Version: 6.00 Build 0)  -->
<svg version="1.1" id="layer" xmlns="http://www.w3.org/2000/svg" xmlns:xlink="http://www.w3.org/1999/xlink" x="0px" y="0px"
	 viewBox="0 0 652 652" style="enable-background:new 0 0 652 652;" xml:space="preserve">
<style type="text/css">
	.st0{fill-rule:evenodd;clip-rule:evenodd;fill:#AC1D22;}
	.st1{fill-rule:evenodd;clip-rule:evenodd;fill:#FDE600;}
	.st2{fill-rule:evenodd;clip-rule:evenodd;fill:#AE2925;}
</style>
<path class="st0" d="M433.9,231.9H110.6h-1.9v45.3c15.3-1.4,14.2-2.9,28.8,4c28.4,13.5,41,22.2,62.6,44
	c10.2,10.3,16.4,27.2,38.8,32.3c33.4,7.6,77.2-19.4,103-36.8c27.2-18.3,56.9-39.8,83.3-59.2l42-29.5l-24.6-0.2
	c-3.6,1.9-31.4,23.3-35.2,26.1c-11.7,8.9-23.1,17.4-34.8,26.3c-11.8,8.9-23.4,16.9-35.5,25.6c-11.9,8.5-24.1,15.9-37.7,23.4
	c-12,6.6-30.1,14.5-47.2,14.5c-20.3,0-30.3-11.8-38.7-22.5c-8.6-11-19.8-20.4-31.8-29.3c-8.8-6.5-18.8-12.5-28.9-17
	c-2.5-1.1-9.2-3-11-4.1c5.3-0.4,24.9-1.8,28.7-0.4c5.5,2.1,28.5,19.5,33.1,24.6c2.1,2.4,5.1,5.4,7.3,7.3c2.4,2.1,4.4,4.7,6.8,7.3
	c10,10.5,16.8,23.2,33.4,24.2c30.3,2,74.2-29.1,98.7-45.6L433.9,231.9z M410.3,455.8c2.4,0,2.5,0.1,4.3,0.5l0.1,20.4
	c0,3.7-0.7,2.8-4.3,2.8v1.4h13.3v-1.4c-5.7,0-4.7,1.8-4.7-10.4c4.2,0,14.2,0.6,14.2-7.1c0-4.4-3.2-7.4-7.6-7.6
	c-4.8-0.2-10.3,0-15.2,0V455.8z M421.7,467.7h-2.8c0-13.5-1.2-11.8,4.3-11.8c5.7,0,5.2,3.9,5.2,7.1
	C428.3,466.6,425.4,467.7,421.7,467.7z M364.4,454.4v1.4c1.9,0,1.9,0.1,3.3,0.5v9.9l-1.9-1.9c-4.8-2.8-10.4,1.2-10.4,9
	c0,3.8,3,8.1,6.6,8.1c3.6,0,3.6-1.5,5.7-2.8c0.6,1.3,0.4,0.5,0.5,2.4h6.2v-1.4c-1.9,0-3.3,0-3.3-1.9v-23.7
	C368.9,453.9,366.2,453.7,364.4,454.4z M359.2,472.9c0-11.9,8.5-8.1,8.5-1.4C367.7,482.4,359.2,481.9,359.2,472.9z M335,465.3
	c1.4,0,1.7,0.2,2.8,0.5c0.9,3.8,0.5,8.3,0.5,12.3c0,1.7-1.2,1.4-2.8,1.4v1.4h9v-1.4c-3.5,0-2.8,0.6-2.8-8c0-6.8,8.1-7.2,8.1-1.9
	c0,10.6,0.8,9.9-2.8,9.9v1.4h9v-1.4c-1.9,0-1.5,0.2-2.8-0.5c0-10.6,1.2-15.2-6.6-15.2c-2.5,0-3.1,1.7-4.7,2.8
	c-0.6-1.2-0.5-0.9-0.5-2.8H335V465.3z M386.2,468.6c0,2.6,4.3,2.6,4.3,0c0-1.5-0.4-0.4-0.9-2.4c2.8-1.5,7.1-1.8,7.1,2.4v2.4
	c-12.1,0-14.8,9.9-6.5,10.7c3.7,0.4,4.5-1.3,6.5-2.7c1.6,1.2,0.8,2.1,3.1,2.6c1.8,0.4,3.1-0.4,3.5-2.1c-1.3-0.5-0.6,0-2.8,0
	c-1.5-6.2,2.7-16.1-6.6-16.1C390.3,463.4,386.2,465.2,386.2,468.6z M391.4,480c-3.2,0-4.6-7.4,5.2-7.6
	C396.6,475.8,396.4,480,391.4,480z M321.8,455.8c5.8,0,4.3-2.5,4.3,22.3c0,2.1-2.2,1.4-4.3,1.4c0.2,2.9,1.1,1.9,11.4,1.9
	c1.3,0,0.9-0.2,1.4-0.9c-0.8-1.2,0.3-0.9-4.3-0.9v-22.3c0-3.4,3.3,0.6,4.3-2.8h-12.8V455.8z M431.2,470.5c0,3.3-0.3,6.1,2.2,8.7
	c4.5,4.6,13.9,2.2,13.9-6.8c0-8.6-8.9-11.3-13.6-7C432.7,466.3,431.2,468.9,431.2,470.5z M434.5,472.4c0-10.7,9-9,9-1.9
	c0,2.7,0.2,9.5-4.3,9.5C435.6,480,434.5,476.1,434.5,472.4z M448.7,467.7c0,3.1-0.1,5,4.7,6.2c2.9,0.7,6.2,0.5,6.2,3.3
	c0,2-4.6,4.9-8.2,0.6c-2-2.3-0.3-3.2-3.2-3.5c0,3,0.4,4.9,0.5,7.1c1.7-0.5,1-0.5,2.4-1.4c8.5,4.5,13.1-2.7,10.1-6.7
	c-2.6-3.5-10.5-1.6-10.5-5.6c0-3,5.8-3.3,7.7-0.6c1.5,2.2-0.1,2.7,2.7,2.9c0-2.7-0.5-3.3-0.5-6.2c-2.8,0.2-0.8,1-2.9,0.5
	c-1-0.3-3.7-2.1-6.9,0.2C450.1,465,448.7,466.8,448.7,467.7z M461.9,465.8h2.8v11.4c0,5.3,9.7,6.6,9.9-2.8h-1.4
	c-0.6,6.7-5.2,5.1-5.2,2.8v-11.4h5.2v-1.9h-5.2v-5.7c0-1.8,0.1-0.2-0.5-1.4c-2.5,0.9-0.6,2-2.2,4.9
	C463.8,464.8,462.2,462.5,461.9,465.8z M374.8,465.8c4.7,0,3.8,0.3,3.8,11.4c0,1.3-0.2,1.3-0.5,2.4h-2.8v1.4h9.5v-1.4h-2.8v-15.6
	h-7.1V465.8z M377.2,455.8c0.5,1,0.8,2.4,2.4,2.4c1.4,0,0.4,0.4,2.4-1.9c-0.5-1-0.8-2.4-2.4-2.4
	C378.2,453.9,379.1,453.6,377.2,455.8z M193.4,176.9v2.8h-66.8v2.4c6.4,0,5.2,1.3,5.2,16.6h-7.1c0-11,1.8-19.1-7.6-19.2
	c-4.2-0.1-8.5,3.1-8.5,8.4c0,5.5,6.3,9.8,11.8,7.1v3.8c-5.2,0-11.8,0.5-11.8,8c0,9.3,16.1,12.3,16.1,0v-5.7h7.1
	c0,14.9,1,14.2-4.7,14.2v2.4h13.7v-2.4c-2.8,0-4.7,0.6-4.7-2.8v-30.3c13.5,0,10.9-3.8,10.9,29.4c0,4.5-1.5,3.8-4.7,3.8v2.4H156v-2.4
	c-2.8,0-4.7,0.6-4.7-2.8v-30.3c11.2,0,18-2.3,18,11.4c0,10.4-7,12.4-14.2,7.6c-0.5,1-0.7,1.1-0.9,2.4c1.9,2.6,0.4-1,6.1,8.2
	c8.7,14.1,20.6-1,14,1.8c-3.5,1.5-6.1,3-10.4-4.4c-0.3-0.6-0.6-1-0.9-1.5c-0.3-0.7-0.4-1.1-0.7-1.7c5.8,0,11.4-5.3,11.4-10.9
	c0-7.8,0.3-6.7-3.8-12.8h23.7c2.3,3.4,1.4,6.9,1.4,13.3c-4-2.7-4.1-2.4-8.5-2.4c-9.1,0-13.6,13.5-7.7,21.4c1.1,1.5,5.4,5.6,5.8,0.9
	c-4.5-1.6-5.8-20.4,3.8-20.4c8.5,0,6.6,13.1,6.6,18.5c0,3.9-4.6-0.7-4.7,4.3h13.7v-2.4c-3,0-4.3,0.4-4.3-1.4v-31.7h10.9v31.7
	c0,1.8-1.2,1.4-4.3,1.4v2.4H220v-2.4c-2.1,0-4.7,0.5-4.7-1.9v-31.3h11.8c7.1,0,9.3,18-1.4,18c-3.1,0-5.2-1.1-7.1-2.4
	c-0.7,3-1,2,1.1,4.1c3.2,3.1,5.6,12,13.1,12c4.4,0,8-2.7,10.9-4.3c0,6.1,0.1,5.7-4.7,5.7v2.4h13.7v-2.4c-3,0-4.3,0.4-4.3-1.4v-31.7
	h7.6v-2.4h-40.3c0-4.3,0.2-8.5-2.9-11.7C206.5,161.4,193.4,163.9,193.4,176.9z M198.2,175.5c0-11.5,12.8-12.8,12.8,0.5v3.8h-12.8
	V175.5z M233.7,182.1c12.1,0,9.9-3.5,9.9,23.7c0,3-14.4,9.9-17.5-3.3c1.7-0.8,7.4-0.8,10.1-6.5c1.7-3.5,1.5-6.4,0.2-9.9
	C235.4,183.7,234.8,183.8,233.7,182.1z M116.7,194c-5.6,0-4.6-12.8-0.9-12.8c4,0,4.7,2.4,4.7,7.1C120.5,190.9,119.2,194,116.7,194z
	 M116.7,213.4c-5.7,0-4.3-12.8-0.9-12.8c4,0,4.7,2.4,4.7,7.1C120.5,210.3,119.2,213.4,116.7,213.4z M265.9,182.1
	c20.6,0,19.9-1.8,19.9,6.2c-3.7-0.9-5.9-1.8-10.1-0.7c-8.6,2.2-8.5,13.1,3.5,13c6.6,0,10.4-0.1,10.4,6.1c0,2.3-0.8,3.9-2,5.1
	c-3.8,3.8-11.4,3.4-16-1.4c-2.6-2.7-5.3-6.6-5.3-11.3H264c6.4,27.3,30.3,19.9,30.3,7.1c0-2.7-1-4.2-2.5-5.6
	c-6.2-5.8-17.4,1.8-17.4-7.7c0-5.9,11.4-5.9,11.4,0.5v2.4h4.7v-13.7h7.6v31.3c0,3.9-4.6-0.7-4.7,4.3h14.2c-0.1-3.2-0.8-2.4-4.3-2.4
	c-1.1-4.7-0.5-26.7-0.5-33.1c5.1,0,15.5-0.5,19.9,0.5c0.3,1.5,0.9,5.9,0.9,7.6c-10.3-5.4-17,2-17,8.1c0,4.4-0.4,6.4,2.5,10.2
	c3.6,4.8,9.7,4.1,14.5,1.6c-0.4,1.6-0.6,3.6-0.9,5.2h-3.8v2.4h13.7v-2.4c-6,0-4.7,1.3-4.7-15.6c0-12.8,12.3-13,12.3,0.5
	c0,1.2-0.7,5.4-1.1,6.4c-1.6,4.3-5.1,3.7-7.9,3c-0.4,1.4-0.2,0.8-0.9,1.9c19,4.4,17.9-23.2,4.7-23.2c-5.9,0-3.8,0.6-7.1,1.4v-7.6
	h15.6c1.6,0,1.4-0.8,1.4-2.4h-79.1V182.1z M317.5,210.1c-7.1,0-6.2-7.7-6.2-12.8c0-9.3,11.8-10.1,11.8,0.9
	C323.2,202.3,323.4,210.1,317.5,210.1z M108.7,312.3v127.9h366.1V258.7c-2.1,0.9-18.1,12.8-21.4,15.2c-20.3,14.8-42.2,31.7-62.4,47
	c-25,18.9-59.3,43.8-87.7,57.6c-40.1,19.5-78.2,22.9-109.6-5.8c-4.3-3.9-12.5-14.5-16.8-19.6c-1.6-1.9-3.1-2.9-4.7-4.8
	c-1.7-2-12.4-10.7-14.7-12.3C147.5,328.8,120.3,313.8,108.7,312.3z"/>
<path class="st1" d="M467.2,231.9l-42,29.5c-26.4,19.4-56.1,40.9-83.3,59.2c-25.8,17.4-69.6,44.5-103,36.8
	c-22.4-5.1-28.6-22-38.8-32.3c-21.6-21.8-34.2-30.5-62.6-44c-14.6-6.9-13.5-5.4-28.8-4l-22.7,3c1.1,1.6,0.2,0.7,5.5,1.6
	c3.1,0.6,15.2,3.1,17.3,4c12.8,2.1,39.8,15,51.2,21.7c34.6,20.1,40,40,57.6,52.3c27.4,19.1,59.9,7.1,85.2-5.4
	c15.7-7.7,31.8-18.3,45.1-27.9c14.3-10.3,28.7-20.6,42.4-31c14-10.7,27.9-21.1,41.9-31.5c7-5.2,13.9-10.1,20.9-15.5
	c3.1-2.4,19.1-14.1,21.7-15.3c1.7-1.4,3.9-3,5.7-4.2l6.2-4.2c10.3-6.7,23.1-14.3,31.9-20.2c5.5-3.7,17-10,23.1-13.3l24.1-12.4
	c1.8-0.9,13.1-5.5,14-6.8c-3.5,0.3-27.8,10.8-30.8,12.3c-13.5,6.9-21,9.8-35.2,18.3c-2.5,1.5-4.7,2.5-6.9,4c-1.1,0.7-2,1.3-3.2,2
	l-3.6,2.1c-1.1,0.7-2.1,1.3-3.2,2l-16.5,10.5C475.9,226,470.8,229.9,467.2,231.9 M433.9,231.9l-84,60.3
	c-24.5,16.4-68.4,47.6-98.7,45.6c-16.6-1.1-23.5-13.7-33.4-24.2c-2.5-2.6-4.4-5.3-6.8-7.3c-2.2-1.9-5.2-5-7.3-7.3
	c-4.6-5.1-27.6-22.5-33.1-24.6c-3.8-1.4-23.4,0-28.7,0.4c1.8,1.1,8.5,3,11,4.1c10.1,4.5,20.1,10.5,28.9,17
	c12,8.9,23.1,18.3,31.8,29.3c8.4,10.7,18.4,22.5,38.7,22.5c17.1,0,35.1-7.9,47.2-14.5c13.6-7.5,25.8-14.9,37.7-23.4
	c12.1-8.7,23.7-16.7,35.5-25.6c11.7-8.9,23.1-17.3,34.8-26.3c3.8-2.9,31.6-24.3,35.2-26.1l8.9-6.5c0.9-0.7,1.3-0.9,2.2-1.6
	l59.3-41.1c1-0.7,1.7-1,2.1-2.2c-3.7,2-7,3.7-10.7,5.9l-20.6,12.6c-1.7,1.1-3.2,1.8-5,3l-20,13.2c-1.8,1.2-3.3,2.1-5.1,3.4
	C448.2,222.3,438.9,228.1,433.9,231.9z M474.7,248.4L431.9,279c-21.1,15-41.9,31.2-63.4,46c-7.3,5-14,9.9-21.7,14.8
	c-35.8,23.1-88.3,57.2-132.9,32.1c-17.8-10-22.2-23.8-36-36.9c-14.8-14.1-25.2-20.2-43.4-29.5c-5.2-2.7-24.9-9.9-25.7-10.7
	c-3.3-0.7-7.4-1.9-10.8-3c-7.5-2.5-14-4-21.8-5.7c-4-0.9-8-2-12.1-1.3c-4,0.7-7.7,1.5-11.3,2.5l-21.6,5.9c-1.2,0.3-1.5,0.5-2.4,0.9
	c-1.1,0.4-1.9,0.5-2.9,0.9c-1.7,0.6-3.2,1.3-5.3,1.8c0.9,1.2-0.5,1,5.2,1c11.7-0.1,18,1,29.6,2.6c2.3,0.3,3.8,0.3,5.9,0.7
	c13.6,2.5,18.4,3.4,32,6.8c3.6,0.9,13.3,3.1,15.4,4.4c11.7,1.5,38.8,16.5,48.8,23.7c2.3,1.7,13,10.3,14.7,12.3
	c1.6,1.9,3.1,2.9,4.7,4.8c4.3,5.1,12.6,15.7,16.8,19.6c31.3,28.7,69.5,25.3,109.6,5.8c28.4-13.8,62.8-38.7,87.7-57.6
	c20.1-15.3,42-32.2,62.4-47c3.3-2.4,19.3-14.3,21.4-15.2l41.9-28.5c3.4-2.5,9.3-5.6,13.3-8l18.2-10.2c1.7-0.9,3-1.5,4.7-2.4
	l14.1-7.2c1-0.5,0.8-0.5,2.2-1.1l41.7-18.9c1.9-0.7,3.1-1.3,5-2.1c2.4-1,3.8-1.4,4.6-2.5c-3,0-11.7,3.2-15.5,4.4
	c-10.8,3.4-32.6,12.2-43.8,17.3L521,219.8l-39.9,24.5c-1,0.6-0.8,0.7-1.9,1.4c-1.1,0.7-1.2,0.6-2.2,1.2
	C476.1,247.4,475.5,247.9,474.7,248.4z"/>
<path class="st2" d="M108.7,285.8l0.1,9c0.8,0.8,20.5,8,25.7,10.7c18.3,9.3,28.6,15.4,43.4,29.5c13.8,13.1,18.3,26.9,36,36.9
	c44.7,25.1,97.1-9,132.9-32.1c7.7-4.9,14.3-9.8,21.7-14.8c21.5-14.8,42.3-31,63.4-46l42.8-30.6l0-15.2c-2.6,1.1-18.5,12.8-21.7,15.3
	c-7,5.4-14,10.4-20.9,15.5c-14,10.4-27.9,20.9-41.9,31.5c-13.7,10.4-28.1,20.7-42.4,31c-13.3,9.6-29.4,20.2-45.1,27.9
	c-25.3,12.5-57.8,24.4-85.2,5.4c-17.6-12.2-23-32.1-57.6-52.3C148.5,300.9,121.5,288,108.7,285.8"/>
</svg>
